# xmcd CD database file
#
# Track frame offsets:
#	150
#	16855
#	43401
#	62095
#	79584
#	100762
#	121803
#	138771
#	154471
#
# Disc length: 2410 seconds
#
# Revision: 0
# Processed by: cddbd v1.4PL0 Copyright (c) Steve Scherf et al.
# Submitted via: CDex 1.40Release
#
DISCID=6d096809
DTITLE=Cracker - Countrysides
DYEAR=2003
DGENRE=Country
TTITLE0=Truckload Of Art
TTITLE1=Duty Free
TTITLE2=Up Against The Wall Redneck Mothers
TTITLE3=Sinaloa Cowboys
TTITLE4=Family Tradition
TTITLE5=The Bottle Let Me Down
TTITLE6=Buenos Noches From A Lonely Room
TTITLE7=Reasons To Quit
TTITLE8=It Ain't Gonna Suck Itself
EXTD=YEAR: 2003 ID3G: 2
EXTT0=
EXTT1=
EXTT2=
EXTT3=
EXTT4=
EXTT5=
EXTT6=
EXTT7=
EXTT8=
PLAYORDER=
